<?xml version="1.0" encoding="UTF-8" standalone="no"?>
<svg
   version="1.1"
   id="Layer_1"
   x="0px"
   y="0px"
   enable-background="new 0 0 512 512"
   xml:space="preserve"
   sodipodi:docname="nail-cropped.svg"
   inkscape:version="1.3 (0e150ed6c4, 2023-07-21)"
   viewBox="1.11 1.69 169.6 330.76"
   xmlns:inkscape="http://www.inkscape.org/namespaces/inkscape"
   xmlns:sodipodi="http://sodipodi.sourceforge.net/DTD/sodipodi-0.dtd"
   xmlns="http://www.w3.org/2000/svg"
   xmlns:svg="http://www.w3.org/2000/svg"><defs
   id="defs59" /><sodipodi:namedview
   id="namedview59"
   pagecolor="#ffffff"
   bordercolor="#000000"
   borderopacity="0"
   inkscape:showpageshadow="2"
   inkscape:pageopacity="0.0"
   inkscape:pagecheckerboard="true"
   inkscape:deskcolor="#d1d1d1"
   inkscape:zoom="1.1796875"
   inkscape:cx="255.57616"
   inkscape:cy="256"
   inkscape:window-width="1368"
   inkscape:window-height="842"
   inkscape:window-x="-6"
   inkscape:window-y="-6"
   inkscape:window-maximized="1"
   inkscape:current-layer="Layer_1"
   showguides="true" />&#10;&#10;<path
   fill="#231f20"
   opacity="1"
   stroke="none"
   d="m 20.665752,297.57479 c -1.95464,-3.74259 -3.90929,-7.4852 -5.83089,-11.8816 -0.61777,-2.13873 -1.26859,-3.62362 -1.9194,-5.10855 -1.35784,-6.14035 -3.4500001,-12.22552 -3.9165701,-18.43289 -0.89679,-11.93121 -0.88807,-23.93127 -1.22702,-35.90353 -0.67782,-23.94292 -1.3557,-47.88587 -1.98686,-71.83004 -0.11771,-4.46537 -0.0168,-8.93652 -0.0168,-14.10264 -1.05668,1.1569 -2.20246,2.12961 -3.00409,3.33183 l -1.65821,-10.75244 c 4.50624,-5.51868 7.701,-11.04027 9.0970101,-18.28036 5.08646,-26.379861 14.39992,-51.220831 29.40326,-73.715246 0.4588,-0.687851 1.02806,-1.302017 2.04498,-2.272598 1.01392,-1.261803 1.52868,-2.201553 2.04343,-3.141312 2.84526,-3.825722 5.69054,-7.651436 9.09552,-11.810493 1.68932,-1.629826 2.81894,-2.926308 3.94855,-4.222794 4.76359,-4.239425 9.52719,-8.478847 14.97255,-12.8694381 2.12271,-1.182922 3.56367,-2.214684 5.00462,-3.246441 1.10767,-0.271267 2.21532,-0.54253 3.82454,-0.6926 1.40181,-0.234284 2.30206,-0.589764 3.20232,-0.945248 1.08102,-0.01445 2.16202,-0.0289 3.7612,0.18475 1.44619,0.341434 2.3743,0.454777 3.30236,0.568115 1.14664,0.158169 2.29325,0.31633 3.84067,0.943413 1.66168,1.006252 2.92255,1.54359 4.18344,2.080929 2.128758,1.578968 4.257478,3.157936 6.749388,5.2544061 2.00324,1.941845 3.64334,3.36618 5.28342,4.790516 1.85348,1.8013 3.70697,3.602603 5.82941,5.997489 1.23962,1.731465 2.21026,2.869343 3.1809,4.007222 3.23618,4.093429 6.47236,8.186866 9.91843,12.903991 0.83377,1.449959 1.45764,2.276215 2.08151,3.102463 5.87918,10.95295 12.81061,21.488777 17.36124,32.968375 5.24603,13.23388 8.83408,27.191871 12.241,41.056821 1.47864,6.01759 3.69202,11.08552 7.60721,15.7899 l 1.62013,15.22262 c -1.08599,-1.67242 -2.233,-3.30879 -3.42825,-4.90452 -0.36087,-0.4818 -0.98028,-0.76991 -1.11426,-0.8707 -1.15933,37.23981 -2.32095,74.55272 -3.66305,112.48863 -0.0789,1.4914 0.0227,2.35981 0.12427,3.22818 0.0142,1.08765 0.0284,2.17527 -0.0894,3.79038 -0.0584,1.08896 0.0153,1.65045 0.0889,2.21197 -0.79202,4.46585 -1.58405,8.93174 -2.74683,13.8891 -0.59979,1.4043 -0.82876,2.31702 -1.05774,3.22977 -0.64484,2.41299 -1.28964,4.82599 -2.17755,7.78839 -0.45447,0.79846 -0.66208,1.05054 -0.866,1.3057 0,0 -0.0425,0.45312 -0.22186,0.85223 -0.38428,0.63309 -0.58575,0.86996 -0.78384,1.10974 -0.19318,0.48645 -0.38639,0.97293 -0.97882,1.87311 -0.93073,1.30331 -1.46216,2.19287 -1.9936,3.08243 -0.99575,1.86694 -1.99148,3.73391 -3.27353,5.99722 -0.40014,0.5397 -0.51217,0.68448 -0.6224,0.83063 -1.83646,2.23709 -3.67294,4.47418 -6.12393,6.98596 -2.40662,2.16397 -4.19873,4.05319 -5.99085,5.94241 -1.76434,1.3241 -3.52868,2.6482 -5.988,4.1163 -3.79889,2.14212 -6.90274,4.1402 -10.0066,6.13831 -1.62969,0.66971 -3.25937,1.33948 -5.53979,1.99335 -1.91907,0.65921 -3.18738,1.33426 -4.45569,2.00934 -2.39789,0.63153 -4.79575,1.26306 -7.81592,1.86645 -1.47207,0.27503 -2.321928,0.57822 -3.171748,0.88141 -8.41351,0.0481 -16.82704,0.0962 -25.83011,-0.0849 -1.49037,-0.39316 -2.3912,-0.55716 -3.29204,-0.72113 -0.43477,-0.0395 -0.86955,-0.079 -1.76065,-0.29273 -1.04333,-0.34469 -1.63032,-0.51516 -2.21733,-0.6856 -1.43385,-0.30759 -2.8677,-0.61515 -4.77035,-1.20594 -1.05577,-0.45346 -1.64273,-0.62371 -2.22969,-0.794 -3.47898,-1.50891 -6.95795,-3.01782 -10.82219,-4.91043 -0.983,-0.61911 -1.58074,-0.85453 -2.17846,-1.08997 -1.18899,-0.82938 -2.37799,-1.65878 -3.9212,-3.02298 -1.60641,-1.36285 -2.85861,-2.19086 -4.11081,-3.01883 -1.85315,-1.4696 -3.7063,-2.93918 -5.79021,-5.04574 -1.89329,-2.40818 -3.55586,-4.17933 -5.21842,-5.9505 -0.85085,-0.78421 -1.70168,-1.56846 -2.8899,-2.78656 -0.55519,-0.7002 -0.77299,-0.9665 -0.99078,-1.23279 0,0 -0.041,-0.47482 -0.04,-0.95871 -0.69223,-1.33246 -1.38543,-2.18103 -2.07863,-3.0296 m 76.29027,27.64187 c 0.26611,-0.21698 0.53222,-0.43399 1.60238,-0.70419 2.382598,-0.34473 4.765168,-0.68945 7.533998,-1.00623 0.54641,-0.27066 1.09283,-0.54132 2.27215,-1.09344 1.10694,-0.30448 2.21384,-0.60895 3.88431,-0.81369 1.15857,-0.72791 2.31714,-1.45584 3.91184,-2.5109 0.50952,-0.18939 1.01904,-0.37881 2.2016,-0.67682 1.12973,-0.65524 2.25949,-1.31045 3.78179,-2.48855 1.85315,-1.14911 3.7063,-2.29819 6.09952,-3.38779 1.17417,-1.32208 2.34836,-2.64416 4.08322,-4.33084 3.19535,-3.59012 6.39069,-7.18027 9.87281,-11.09012 0.19131,-0.21542 0.37988,-0.43323 0.85385,-1.20019 0.86993,-1.12982 1.73987,-2.25965 3.19836,-3.66666 0.82199,-1.9266 1.64399,-3.85321 2.65518,-6.48242 1.336,-3.75067 2.67197,-7.50131 4.28284,-11.51486 0.16998,-0.58628 0.33997,-1.17255 0.57742,-2.41935 0.0491,-0.43988 0.0982,-0.87979 0.48255,-1.65884 0.14877,-0.89374 0.29757,-1.78751 0.49759,-3.42337 0.0566,-0.74167 0.11316,-1.48334 0.65927,-2.52014 2.46512,-1.82764 1.72018,-3.31717 -0.5249,-5.41913 0.0116,-0.76724 0.0231,-1.53448 0.42572,-2.72449 0.14602,-1.496 0.29205,-2.99197 0.44665,-5.43118 0.3237,-12.79907 0.71152,-25.59689 0.95664,-38.39746 0.40133,-20.95906 1.01593,-41.92052 0.97274,-62.87981 -0.0446,-21.67201 -4.26208,-42.79219 -12.1632,-62.873711 -5.63739,-14.32807 -13.12027,-27.930052 -19.98606,-42.456327 -0.62365,-0.82621 -1.24728,-1.652428 -2.39813,-2.874893 C 117.06602,34.189455 111.38472,26.816698 104.84233,20.309755 92.399122,7.9339839 86.545092,6.9305889 73.200862,13.75448 c -1.14132,1.242588 -2.28264,2.485176 -3.95906,4.08466 -1.45859,1.246708 -2.91717,2.493416 -5.048,3.920383 -1.13188,1.296303 -2.26378,2.592606 -3.76262,4.44093 -2.85469,3.458751 -5.7094,6.917514 -9.1877,10.649608 -0.8046,1.069451 -1.60918,2.138901 -2.60075,3.78775 -1.11342,1.655999 -2.22686,3.311997 -3.74382,5.192185 -0.35341,0.594292 -0.70682,1.188591 -1.23598,2.30529 -0.26312,0.480103 -0.52625,0.960205 -1.3877,1.68969 -0.8106,1.595588 -1.6212,3.191185 -2.62861,5.467338 -2.38344,4.937302 -4.85846,9.832785 -7.13492,14.818935 -11.54805,25.29374 -18.20886,51.789161 -18.65573,79.640351 -0.19467,12.13276 0.63852,24.27922 0.86549,36.42208 0.4075,21.80162 0.70975,43.60521 0.6387,66.00542 -2.38237,4.39614 -1.89933,8.49911 1.33251,13.07867 0.0556,0.75195 0.11114,1.50387 -0.25321,2.68521 -2.06376,3.1185 -0.26864,4.95709 2.20078,7.14798 -0.002,0.19 -0.004,0.38 -0.075,1.02347 0.35306,0.79855 0.70613,1.59714 1.35876,3.02048 0.56971,1.50909 1.13941,3.01815 1.59313,5.14093 0.43866,4.6968 0.94867,9.35327 6.82905,11.64422 0.83123,1.18918 1.66245,2.37839 2.41989,4.08972 0.99414,0.84616 1.98829,1.69233 3.22986,3.03684 0.2822,0.47937 0.56439,0.95874 0.7882,1.98086 1.36114,1.1637 2.7223,2.32737 4.67085,3.67862 0.19322,0.0701 0.38646,0.14014 0.79638,0.37784 0.14536,0.11423 0.29218,0.22653 0.95519,0.68726 0.85994,0.89108 1.71988,1.78213 2.98868,3.15378 0.89004,0.53231 1.7801,1.06463 3.32055,1.83456 8.84038,3.38635 17.68076,6.77267 26.73653,10.32538 0.14452,0.11334 0.29053,0.22473 1.3262,0.38522 2.07273,0.0774 4.14547,0.15491 6.58512,0.78082 3.07568,3.23066 5.89605,2.4924 9.39859,-0.60769 1.66232,-0.036 3.32464,-0.0721 5.39374,-0.42661 z"
   id="path2"
   sodipodi:nodetypes="cccssscccssccccccccccccccccccssccscccccccccccccccccccccccccccccccccccccccccccccccccccccccccccccsssccsccccccccccssscccccccccccccccccccccc" />&#10;<path
   fill="#231f20"
   opacity="1"
   stroke="none"
   d="m 120.12942,325.54945 c 2.76413,-1.89291 5.86798,-3.89099 9.35296,-5.92837 -2.75039,1.91489 -5.88183,3.86905 -9.35296,5.92837 z"
   id="path3" />&#10;&#10;<path
   fill="#231f20"
   opacity="1"
   stroke="none"
   d="m 136.06487,315.2484 c 1.51154,-1.73758 3.30365,-3.6268 5.44806,-5.59247 -1.48761,1.76263 -3.32754,3.60172 -5.44806,5.59247 z"
   id="path5" />&#10;<path
   fill="#231f20"
   opacity="1"
   stroke="none"
   d="m 110.67117,15.256059 c -1.44809,-1.159866 -3.0882,-2.584201 -4.81434,-4.347313 1.48343,1.135098 3.05286,2.608967 4.81434,4.347313 z"
   id="path6" />&#10;<path
   fill="#231f20"
   opacity="1"
   stroke="none"
   d="m 12.92495,280.92607 c 0.641327,1.1435 1.292145,2.62839 1.857437,4.40021 -0.672988,-1.16168 -1.260452,-2.61026 -1.857437,-4.40021 z"
   id="path7" />&#10;<path
   fill="#231f20"
   opacity="1"
   stroke="none"
   d="m 98.58059,5.2679379 c -1.011139,-0.32967 -2.272003,-0.867008 -3.629517,-1.706218 1.062195,0.298263 2.220978,0.898407 3.629517,1.706218 z"
   id="path8" />&#10;<path
   fill="#231f20"
   opacity="1"
   stroke="none"
   d="m 76.398583,3.4584979 c -1.123718,0.909507 -2.564682,1.941269 -4.366455,3.01593 1.109222,-0.935959 2.579224,-1.914822 4.366455,-3.01593 z"
   id="path9" />&#10;&#10;<path
   fill="#231f20"
   opacity="1"
   stroke="none"
   d="m 110.13192,329.58858 c 0.9306,-0.60632 2.19891,-1.28137 3.78241,-1.89356 -0.93808,0.65018 -2.19138,1.23749 -3.78241,1.89356 z"
   id="path11" />&#10;<path
   fill="#231f20"
   opacity="1"
   stroke="none"
   d="m 37.871071,316.83708 c 1.054841,0.56958 2.307038,1.39759 3.716996,2.51923 -1.068024,-0.55786 -2.293824,-1.40936 -3.716996,-2.51923 z"
   id="path12" />&#10;<path
   fill="#231f20"
   opacity="1"
   stroke="none"
   d="m 83.428002,1.7101839 c -0.585587,0.3437 -1.48584,0.69918 -2.54248,0.898453 0.638336,-0.399697 1.43309,-0.643185 2.54248,-0.898453 z"
   id="path13" />&#10;<path
   fill="#231f20"
   opacity="1"
   stroke="none"
   d="m 90.532128,2.2951979 c -0.653961,0.042729 -1.582062,-0.070614 -2.62326,-0.390472 0.707641,-0.059544 1.528381,0.087429 2.62326,0.390472 z"
   id="path14" />&#10;&#10;&#10;&#10;<path
   fill="#231f20"
   opacity="1"
   stroke="none"
   d="m 99.122521,332.3911 c 0.533844,-0.28909 1.383699,-0.59229 2.471499,-0.83264 -0.55988,0.31473 -1.3577,0.56665 -2.471499,0.83264 z"
   id="path18" />&#10;&#10;<path
   fill="#231f20"
   opacity="1"
   stroke="none"
   d="m 69.961449,331.76061 c 0.62378,0.003 1.524613,0.16653 2.595825,0.48785 -0.659317,-0.004 -1.489028,-0.16516 -2.595825,-0.48785 z"
   id="path20" />&#10;&#10;&#10;&#10;<path
   fill="#231f20"
   opacity="1"
   stroke="none"
   d="m 65.935601,330.77351 c 0.357819,0.0178 0.944809,0.18824 1.662826,0.49592 -0.390548,-0.0229 -0.912094,-0.18308 -1.662826,-0.49592 z"
   id="path24" />&#10;<path
   fill="#231f20"
   opacity="1"
   stroke="none"
   d="m 58.93554,328.77355 c 0.357788,0.0176 0.944748,0.18789 1.66272,0.49533 -0.390503,-0.0228 -0.912018,-0.18277 -1.66272,-0.49533 z"
   id="path25" />&#10;<path
   fill="#231f20"
   opacity="1"
   stroke="none"
   d="m 45.937462,322.79134 c 0.365983,0.0646 0.963715,0.30002 1.685761,0.70041 -0.401794,-0.0665 -0.927917,-0.29804 -1.685761,-0.70041 z"
   id="path26" />&#10;&#10;&#10;&#10;&#10;&#10;<path
   fill="#000000"
   opacity="1"
   stroke="none"
   d="m 51.867104,36.576723 c 2.854691,-3.458756 5.709397,-6.917519 9.007553,-10.841355 1.626099,-1.695423 2.808747,-2.925758 3.991394,-4.156097 1.458588,-1.246715 2.917176,-2.493423 4.923371,-4.060459 1.724273,-1.526608 2.90094,-2.732887 4.077621,-3.939163 12.678055,-6.6490601 18.532089,-5.6456651 30.975297,6.730106 6.54239,6.506943 12.22369,13.8797 18.66928,21.353783 0.99338,1.322479 1.61124,2.152687 2.22913,2.982887 6.65933,13.926002 14.14221,27.527985 19.7796,41.856056 7.90112,20.081519 12.11856,41.201699 12.16321,62.873709 0.0432,20.95929 -0.57142,41.92075 -0.97275,62.87981 -0.24512,12.80057 -0.63294,25.59839 -1.1185,39.18924 -0.33319,2.21527 -0.50449,3.6387 -0.67578,5.06216 -0.0116,0.76724 -0.0232,1.53449 -0.0466,3.09656 0.008,2.16971 0.0275,3.54455 0.0472,4.91943 -0.0566,0.74167 -0.11316,1.48334 -0.35416,2.87137 -0.33911,1.46964 -0.4938,2.29291 -0.64847,3.11618 -0.0491,0.43988 -0.0982,0.87979 -0.33319,1.87937 -0.3461,1.08062 -0.50622,1.60159 -0.66635,2.12255 -1.336,3.75065 -2.67197,7.50129 -4.31995,11.86243 -1.18524,2.4567 -2.05847,4.30295 -2.93173,6.14917 -0.86996,1.12979 -1.7399,2.25961 -2.91522,3.80948 -0.51663,0.61966 -0.69324,0.84628 -0.83524,1.09988 -3.19534,3.59012 -6.39068,7.18027 -10.1517,11.08808 -1.72967,1.52966 -2.89364,2.74164 -4.05765,3.95367 -1.85311,1.14908 -3.70626,2.29816 -6.07025,3.80667 -1.65521,0.98554 -2.79959,1.61164 -3.944,2.23777 -0.50952,0.18939 -1.01904,0.37881 -2.05725,0.83535 -1.66803,0.89279 -2.80734,1.51841 -3.94668,2.14402 -1.10694,0.30447 -2.21384,0.60894 -3.90662,1.1022 -1.08145,0.41809 -1.577,0.6474 -2.07254,0.87671 -2.3826,0.34472 -4.76517,0.68945 -7.783753,1.17618 -0.881714,0.38821 -1.127441,0.63443 -1.373169,0.88064 -1.662323,0.036 -3.324646,0.0721 -5.847076,0.10541 -3.54184,0.0188 -6.223633,0.0404 -8.905411,0.062 -2.072723,-0.0774 -4.145462,-0.15491 -6.762344,-0.35278 -0.678879,-0.2479 -0.829956,-0.35147 -0.997437,-0.43116 -8.840377,-3.38635 -17.680755,-6.77267 -27.054382,-10.51428 -1.420898,-0.89013 -2.308533,-1.42502 -3.196167,-1.95987 -0.85994,-0.89108 -1.719879,-1.78213 -2.937866,-2.944 -0.493576,-0.39908 -0.645508,-0.50354 -0.813843,-0.5841 -0.193222,-0.0701 -0.386459,-0.14014 -1.061142,-0.56235 -1.697967,-1.52451 -2.91449,-2.69687 -4.130997,-3.86923 -0.282196,-0.47937 -0.564392,-0.95874 -1.101165,-1.96241 -1.136887,-1.36108 -2.019196,-2.1979 -2.901505,-3.03469 -0.831222,-1.18918 -1.662445,-2.37839 -2.849197,-4.10038 -2.356217,-4.26358 -4.356873,-7.99435 -6.357544,-11.72509 -0.569702,-1.5091 -1.139405,-3.01816 -1.899567,-5.14087 -0.493561,-1.36249 -0.796692,-2.11139 -1.099823,-2.86029 0.0022,-0.19004 0.0043,-0.38004 -0.04265,-1.21741 -0.609986,-2.74155 -1.170868,-4.83579 -1.731751,-6.92999 -0.05556,-0.75196 -0.111129,-1.50388 -0.171264,-3.08451 -0.306595,-4.83493 -0.608628,-8.84118 -0.91066,-12.84744 -0.346237,-21.80276 -0.648483,-43.60635 -1.055985,-65.40797 -0.226974,-12.14286 -1.060165,-24.28933 -0.865493,-36.42208 0.446868,-27.85119 7.107681,-54.346615 18.655731,-79.640354 2.276458,-4.986145 4.75148,-9.88163 7.452102,-15.403252 1.181366,-2.100342 2.045563,-3.616371 2.909745,-5.1324 0.263137,-0.480103 0.52626,-0.960205 1.093856,-1.924347 0.647995,-1.004502 0.991517,-1.524971 1.335038,-2.045441 1.113434,-1.655998 2.226867,-3.311996 3.683487,-5.490997 1.189178,-1.528031 2.035171,-2.533058 2.881164,-3.538086 z"
   id="path32"
   style="fill:#ff0000" />&#10;<path
   fill="#231f20"
   opacity="1"
   stroke="none"
   d="m 15.56881,251.88036 c 0.510681,3.70755 0.812714,7.7138 1.08374,12.17346 -3.191711,-3.37561 -3.674743,-7.47858 -1.08374,-12.17346 z"
   id="path33" />&#10;&#10;<path
   fill="#231f20"
   opacity="1"
   stroke="none"
   d="m 81.980218,325.97673 c 2.498321,-0.29581 5.180114,-0.31738 8.306762,-0.30792 -2.227234,3.07455 -5.047607,3.8128 -8.306762,0.30792 z"
   id="path35" />&#10;&#10;&#10;&#10;&#10;&#10;&#10;&#10;&#10;<path
   fill="#231f20"
   opacity="1"
   stroke="none"
   d="m 73.533959,13.667062 c -0.843597,1.118863 -2.020264,2.325142 -3.47699,3.673302 0.861267,-1.100708 2.002579,-2.343296 3.47699,-3.673302 z"
   id="path44" />&#10;&#10;<path
   fill="#231f20"
   opacity="1"
   stroke="none"
   d="m 111.96709,321.54924 c 0.85758,-0.67547 1.99689,-1.30109 3.44684,-2.0303 -0.84793,0.62433 -2.0065,1.35226 -3.44684,2.0303 z"
   id="path46" />&#10;&#10;&#10;<path
   fill="#231f20"
   opacity="1"
   stroke="none"
   d="m 118.02578,318.46568 c 0.80789,-0.5718 1.95227,-1.1979 3.41119,-1.92199 -0.81518,0.55725 -1.94494,1.21246 -3.41119,1.92199 z"
   id="path49" />&#10;&#10;&#10;&#10;<path
   fill="#231f20"
   opacity="1"
   stroke="none"
   d="m 105.89928,323.49223 c 0.30243,-0.24325 0.79798,-0.47256 1.56296,-0.7499 -0.27701,0.22259 -0.82342,0.49325 -1.56296,0.7499 z"
   id="path53" />&#10;&#10;&#10;&#10;<path
   fill="#231f20"
   opacity="1"
   stroke="none"
   d="m 74.144677,325.00176 c 0.05978,-0.004 0.210861,0.10006 0.445648,0.32241 -0.04742,-0.0145 -0.193436,-0.12591 -0.445648,-0.32241 z"
   id="path57" />&#10;<path
   fill="#231f20"
   opacity="1"
   stroke="none"
   d="m 96.752648,325.3759 c 0.04233,-0.087 0.288055,-0.33322 0.767761,-0.69482 -0.03217,0.10159 -0.298279,0.3186 -0.767761,0.69482 z"
   id="path58" />&#10;&#10;</svg>
